# xmcd CD database file
#
# Track frame offsets:
#	150
#	20594
#	36101
#	56515
#
# Disc length: 955 seconds
#
# Revision: 0
# Processed by: cddbd v1.5.2PL0 Copyright (c) Steve Scherf et al.
# Submitted via: CD2WAV32(JP) R3.22
#
DISCID=2b03b904
DTITLE=Lia - 絆-kizunairo-色
DYEAR=2010
DGENRE=Pop
TTITLE0=絆-kizunairo-色
TTITLE1=I miss you
TTITLE2=絆-kizunairo-色　inst.
TTITLE3=I miss you inst.
EXTD=
EXTT0=
EXTT1=
EXTT2=
EXTT3=
PLAYORDER=
